<?xml version="1.0" encoding="utf-8"?>
<!-- Generator: Adobe Illustrator 17.1.0, SVG Export Plug-In . SVG Version: 6.00 Build 0)  -->
<!DOCTYPE svg PUBLIC "-//W3C//DTD SVG 1.1//EN" "http://www.w3.org/Graphics/SVG/1.1/DTD/svg11.dtd" [
	<!ENTITY st0 "fill:#65C6BB;">
	<!ENTITY st1 "fill:#F5D76E;">
	<!ENTITY st2 "fill:#C8F7C5;">
	<!ENTITY st3 "fill:#BE90D4;">
]>
<svg version="1.1" id="Layer_1" xmlns="http://www.w3.org/2000/svg" xmlns:xlink="http://www.w3.org/1999/xlink" x="0px" y="0px"
	 viewBox="0 0 800 600" style="enable-background:new 0 0 800 600;" xml:space="preserve">
<g id="Layer_1_1_">
	<path style="&st0;" d="M273.8460693,188.1316528c8.350708-7.9940948,46.4593811-40.7430115,105.9529419,0.1772308
		c63.8374939,43.9080658,136.6813965,95.4422455,154.4057007,108.9547577
		c16.9842529,12.9483643,48.305481,62.9819946,14.3100586,112.3974915s-94.4338379,52.2622375-124.3560791,30.8396606
		c-29.9222107-21.4226074-73.7250977-71.5412292-84.302124-82.97229
		c-32.8059998-35.4550781-60.733429-61.8502197-77.8312073-100.3034973
		C249.8152466,229.7641907,261.8001404,199.6631622,273.8460693,188.1316528z"/>
	<path style="&st1;" d="M-4717.8325195,1796.112793c-22.4663086,32.8465576-68.7006836,49.1707764-101.5473633,26.7045898
		l-436.1640625-307.1877441c-32.8466797-22.4661865-41.2617188-67.3060303-18.7954102-100.1525879l0,0
		c22.4663086-32.8465576,67.3061523-41.2615967,100.152832-18.7954102l438.0126953,293.1773682
		C-4703.3271484,1712.3250732-4695.3662109,1763.2662354-4717.8325195,1796.112793L-4717.8325195,1796.112793z"/>
	<path style="&st2;" d="M-4387.8046875-324.5062256c22.1567383,42.1725159-1.8696289,85.8236694-44.0424805,107.9806824
		l-349.7749023,196.3651733c-42.1723633,22.1570244-94.3217773,5.9312725-116.4785156-36.2412338l-0.8139648-1.5491104
		c-22.34375-42.5270996-5.9814453-95.1149521,36.5454102-117.4582901l364.2167969-171.0072327
		c42.5273438-22.3433228,87.1904297-22.1661987,109.5336914,20.3609314L-4387.8046875-324.5062256z"/>
	<path style="&st3;" d="M190.7039185,2289.7541504c14.4732056,27.7160645,3.7378235,61.9169922-23.9781189,76.3903809
		l-118.617157,61.9414063c-27.7159557,14.4733887-61.9170265,3.737793-76.3902283-23.9780273l0,0
		c-14.4732113-27.7158203-3.737833-61.9169922,23.9781227-76.3903809l118.6171417-61.9414063
		C142.0296478,2251.3029785,176.2307129,2262.0383301,190.7039185,2289.7541504L190.7039185,2289.7541504z"/>
</g>
</svg>
