<?xml version="1.0" encoding="utf-8"?>
<!-- Generator: Adobe Illustrator 17.1.0, SVG Export Plug-In . SVG Version: 6.00 Build 0)  -->
<!DOCTYPE svg PUBLIC "-//W3C//DTD SVG 1.1//EN" "http://www.w3.org/Graphics/SVG/1.1/DTD/svg11.dtd" [
	<!ENTITY st0 "fill:#65C6BB;">
	<!ENTITY st1 "fill:#F5D76E;">
	<!ENTITY st2 "fill:#C8F7C5;">
	<!ENTITY st3 "fill:#BE90D4;">
]>
<svg version="1.1" id="Layer_1" xmlns="http://www.w3.org/2000/svg" xmlns:xlink="http://www.w3.org/1999/xlink" x="0px" y="0px"
	 viewBox="0 0 800 600" style="enable-background:new 0 0 800 600;" xml:space="preserve">
<g id="Layer_1_1_">
	<path style="&st0;" d="M572.3591919-1847.019043c8.350769-7.9941406,46.4594116-40.7429199,105.9530029,0.1772461
		c63.8375244,43.9080811,136.6813354,95.4422607,154.4057007,108.9547119
		c16.984314,12.9484863,48.305481,62.9821777,14.3100586,112.3974609
		c-33.9954834,49.4156494-94.4338989,52.2623291-124.3560791,30.8397217
		c-29.9222412-21.4226074-73.7250977-71.5411377-84.302124-82.97229
		c-32.8060303-35.4549561-60.7334595-61.8500977-77.8312378-100.3034668
		C548.3284302-1805.3864746,560.3132935-1835.4875488,572.3591919-1847.019043z"/>
	<path style="&st1;" d="M-4419.3193359-239.0378571c-22.4663086,32.8465881-68.7006836,49.1708069-101.5473633,26.7046204
		l-436.1640625-307.1877441c-32.8466797-22.4661865-41.2617188-67.3060303-18.7954102-100.1526489l0,0
		c22.4663086-32.8465576,67.3061523-41.2615356,100.152832-18.7953491l438.0126953,293.1773071
		C-4404.8139648-322.8255005-4396.8530273-271.8844604-4419.3193359-239.0378571L-4419.3193359-239.0378571z"/>
	<path style="&st2;" d="M-4089.2915039-2359.6569824c22.1567383,42.1726074-1.869873,85.8237305-44.0424805,107.9807129
		l-349.7749023,196.3652344c-42.1723633,22.1571045-94.3217773,5.9313965-116.4785156-36.2412109l-0.8139648-1.5490723
		c-22.34375-42.5270996-5.9814453-95.1149902,36.5454102-117.458252l364.2167969-171.0073242
		c42.5273438-22.3432617,87.1899414-22.1662598,109.5336914,20.361084L-4089.2915039-2359.6569824z"/>
	<path style="&st3;" d="M463.7161255,266.2182922c8.9168701,17.0757141,2.3028564,38.1468811-14.7728271,47.0637512
		l-73.0796509,38.1620178c-17.0756836,8.9168701-38.1468506,2.3028564-47.0637207-14.7728271l0,0
		c-8.9169312-17.0757141-2.302887-38.1468811,14.7728271-47.0637817l73.0795898-38.1620026
		C433.7280884,242.5285645,454.7992249,249.1425934,463.7161255,266.2182922L463.7161255,266.2182922z"/>
</g>
</svg>
